<svg width="218" height="191" viewBox="0 0 218 191" fill="none" xmlns="http://www.w3.org/2000/svg">
<g clip-path="url(#clip0_117_91)">
<path d="M27.1758 38.0713C28.2009 38.2816 30.0918 39.6965 31.2802 39.9798C32.8192 40.3464 34.3217 39.9402 35.7458 40.6828C37.6367 41.6689 39.0209 43.6132 41.152 44.1793C43.1765 44.668 45.3349 44.7933 47.4127 44.9693C68.0653 46.7181 86.7271 59.5642 97.6235 77.1133C95.5006 75.67 91.7313 73.5048 89.3913 72.5164C80.9947 68.9701 61.2332 62.6892 52.7484 66.041C53.0939 66.5308 53.6902 67.7028 54.0358 68.2865C54.8717 69.7006 55.8316 71.0378 56.904 72.2822C65.5855 82.4985 82.3917 92.1895 94.5941 97.4951C92.7429 97.1765 91.0526 96.7903 89.2255 96.3715C86.8212 95.983 83.8547 95.1643 81.496 94.5465C71.7781 92.0009 63.4074 88.8887 55.1677 83.0749C57.7843 92.0151 62.2857 97.8073 68.4728 104.471C66.5303 103.178 64.5717 101.901 62.7302 100.471C55.3333 94.7261 49.8153 87.5285 45.2578 79.3979C43.6173 76.4712 41.5688 71.623 39.1272 69.2717C38.9533 69.4869 38.7946 69.7142 38.6523 69.9516C36.1875 73.9781 36.2701 82.8115 36.8352 87.3322C37.111 89.5387 37.7245 92.4589 38.2585 94.6238C31.3605 84.1199 27.0775 72.7667 29.539 60.1845C31.5799 49.7516 31.9639 47.6978 27.1758 38.0713Z" fill="currentColor"/>
<path d="M85.1477 112.351C85.6863 112.483 86.3682 112.874 87.0325 113.036C88.1622 113.31 89.9221 113.452 90.9531 113.797C91.3952 113.945 93.056 115.634 93.7077 115.708C94.1182 115.755 95.0188 115.391 95.3854 115.215C97.999 113.962 99.7426 113.702 102.591 113.415C111.117 112.554 119.276 116.126 125.73 121.605C120.093 120.321 114.292 119.277 108.561 120.624C106.969 120.999 104.132 121.803 103.252 123.329C102.897 123.944 102.903 124.614 103.087 125.282C104.45 130.251 132.556 145.3 138.461 148.71C129.997 146.025 118.492 140.752 110.35 136.889C109.367 136.441 106.47 134.84 105.56 135.299C104.298 137.218 108.129 146.793 108.936 149.435C109.638 151.753 110.252 154.098 110.779 156.464C111.567 159.966 111.963 163.781 112.395 167.363C111.81 165.808 111.448 164.153 110.966 162.56C109.847 158.867 108.447 155.21 106.981 151.641C105.42 147.844 98.6883 132.644 95.4741 131.077C95.0236 130.857 94.5278 130.841 94.0622 131.025C92.4439 131.666 91.3162 133.989 90.7145 135.495C88.5701 140.86 88.6103 148.253 90.8743 153.596C84.5671 146.333 81.54 135.996 84.9208 126.795C85.6455 124.824 86.9027 122.788 87.4911 120.994C87.2607 119.985 86.8707 118.934 86.7376 117.909C86.468 115.833 85.9508 114.264 85.1477 112.351Z" fill="currentColor"/>
<path d="M156.691 154.553C161.533 154.203 166.212 155.387 170.651 157.222C166.223 157.457 162.793 158.373 158.577 159.693C154.106 161.094 150.176 164.639 156.552 167.331C162.903 170.013 172.143 169.468 178.585 166.941C171.472 172.384 164.979 173.93 156.254 171.574C159.337 176.161 166.421 179.085 171.631 180.424L173.343 180.943C165.945 180.98 159.315 179.648 153.198 175.47C152.147 174.753 150.539 173.643 149.359 173.231C146.397 173.492 149.143 182.88 150.001 184.366C150.608 185.414 151.691 186.514 152.501 187.403C150.909 186.299 149.279 185.423 147.766 184.202C143.225 180.546 139.917 175.235 139.869 169.277C139.857 167.704 140.082 166.095 140.154 164.507C138.39 162.004 138.05 160.534 135.937 158.275C140.684 158.639 139.478 156.704 144.045 159.553C147.918 155.987 151.494 154.95 156.691 154.553Z" fill="currentColor"/>
<path d="M208.053 165.443C210.57 165.197 213.22 165.717 215.663 165.549C211.101 168.227 203.679 170.181 200.08 174.321C199.714 175.072 200.894 175.608 201.283 175.655C207.053 176.334 212.83 174.61 217.835 171.907C217.708 172.168 214.693 174.428 214.303 174.719C211.747 176.628 208.566 177.668 205.663 178.938C208.031 180.734 210.617 181.115 213.482 181.512C209.424 181.899 205.826 181.871 201.857 180.915C200.661 180.628 198.304 179.862 197.238 180.46C198.019 185.341 209.218 189.196 213.5 190.767C207.884 190.463 202.956 188.6 198.154 185.799C194.368 183.589 192.843 182.209 190.461 178.468C189.929 177.631 186.143 175.225 185.098 174.721C188.423 173.468 186.815 172.669 191.204 173.034C195.12 167.099 201.473 165.923 208.053 165.443Z" fill="currentColor"/>
<ellipse cx="8.83102" cy="8.83091" rx="8.83102" ry="8.83091" fill="currentColor"/>
</g>
<defs>
<clipPath id="clip0_117_91">
<rect width="218" height="191" fill="transparent"/>
</clipPath>
</defs>
</svg>
